<svg xmlns="http://www.w3.org/2000/svg" version="1.1" xmlns:xlink="http://www.w3.org/1999/xlink" xmlns:svgjs="http://svgjs.dev/svgjs" width="2000" height="1247" viewBox="0 0 2000 1247"><g transform="matrix(1,0,0,1,-1.2121212121212466,0.5048582995954121)"><svg viewBox="0 0 396 247" data-background-color="#ffffff" preserveAspectRatio="xMidYMid meet" height="1247" width="2000" xmlns="http://www.w3.org/2000/svg" xmlns:xlink="http://www.w3.org/1999/xlink"><g id="tight-bounds" transform="matrix(1,0,0,1,0.2400000000000091,-0.09999999999999432)"><svg viewBox="0 0 395.52 247.2" height="247.2" width="395.52"><g><svg></svg></g><g><svg viewBox="0 0 395.52 247.2" height="247.2" width="395.52"><g transform="matrix(1,0,0,1,75.54432,84.32791491869354)"><svg viewBox="0 0 244.43135999999998 78.54417016261291" height="78.54417016261291" width="244.43135999999998"><g><svg viewBox="0 0 244.43135999999998 78.54417016261291" height="78.54417016261291" width="244.43135999999998"><g><svg viewBox="0 0 244.43135999999998 78.54417016261291" height="78.54417016261291" width="244.43135999999998"><g><svg viewBox="0 0 244.43135999999998 78.54417016261291" height="78.54417016261291" width="244.43135999999998"><g id="textblocktransform"><svg viewBox="0 0 244.43135999999998 78.54417016261291" height="78.54417016261291" width="244.43135999999998" id="textblock"><g><svg viewBox="0 0 244.43135999999998 78.54417016261291" height="78.54417016261291" width="244.43135999999998"><g transform="matrix(1,0,0,1,0,0)"><svg width="244.43135999999998" viewBox="1.56 -40.82 175.64 56.45" height="78.54417016261291" data-palette-color="#a437db"><path d="M9.74-0.2L9.74-0.78Q9.74-0.98 9.96-0.98L9.96-0.98 10.64-0.98Q13.04-0.98 14.49-2 15.94-3.03 15.94-4.39L15.94-4.39 15.94-31.42Q15.94-31.93 15.73-31.99 15.53-32.06 15.23-32.1L15.23-32.1 5.86-32.1Q3.59-31.62 2.88-28.61L2.88-28.61Q2.49-27 2.42-26.55 2.34-26.1 2.15-26.1L2.15-26.1 1.71-26.1Q1.56-26.1 1.56-26.2L1.56-26.2 1.56-27 2.47-34.62Q2.61-35.38 2.95-35.38 3.3-35.38 3.69-34.9 4.08-34.42 5.18-34.42L5.18-34.42 31.49-34.42Q32.54-34.42 32.76-34.67 32.98-34.91 33.18-35.14 33.37-35.38 33.68-35.38 33.98-35.38 34.07-35.13 34.16-34.89 34.2-34.62L34.2-34.62 35.11-27 35.11-26.2Q35.11-26.1 34.96-26.1L34.96-26.1 34.52-26.1Q34.33-26.1 34.25-26.46L34.25-26.46Q33.86-28.91 33.13-30.33 32.4-31.76 30.81-32.1L30.81-32.1 21.41-32.1Q21.12-32.06 20.91-31.99 20.7-31.93 20.7-31.42L20.7-31.42 20.7-4.39Q20.7-3.03 22.16-2 23.61-0.98 26-0.98L26-0.98 26.71-0.98Q26.9-0.98 26.9-0.78L26.9-0.78 26.9-0.2Q26.9 0 26.71 0L26.71 0 9.94 0Q9.74 0 9.74-0.2L9.74-0.2ZM53.46-4.03Q53.46-3.39 54.06-3.02 54.66-2.64 55.44-2.64 56.22-2.64 56.75-3.04 57.27-3.44 57.47-3.44 57.66-3.44 57.66-2.92 57.66-2.39 57.18-2.03L57.18-2.03Q53.51 0.66 52.22 0.66L52.22 0.66Q50.66 0.66 49.68-2.59L49.68-2.59Q49.61-2.83 49.56-2.81L49.56-2.81Q46.53-0.54 45.75-0.07L45.75-0.07Q43.75 1.07 41.73 0.29 39.72-0.49 38.82-2.29L38.82-2.29Q38.38-3.22 38.38-4.27L38.38-4.27Q38.38-6.35 39.91-7.57 41.45-8.79 45.77-9.91L45.77-9.91Q47.24-10.3 48.39-10.91 49.53-11.52 49.59-11.69 49.66-11.87 49.66-12.01L49.66-12.01 49.66-16.7Q49.66-19.46 47.51-20.58L47.51-20.58Q46.8-20.95 45.81-20.95 44.82-20.95 43.81-20.17 42.8-19.38 42.8-17.94L42.8-17.94 42.92-16.99Q42.77-16.7 41.16-16.02 39.55-15.33 39.3-15.28L39.3-15.28Q38.91-15.28 38.91-16.22 38.91-17.16 39.48-18.31 40.04-19.46 41.06-20.41L41.06-20.41Q43.45-22.63 46.53-22.63 49.61-22.63 51.54-20.94 53.46-19.24 53.46-16.89L53.46-16.89 53.46-4.03ZM42.21-4.74Q42.21-3.56 43.11-2.7 44.02-1.83 45.18-1.83 46.34-1.83 48-2.82 49.66-3.81 49.66-4.86L49.66-4.86 49.66-9.81Q49.66-10.08 49.53-10.08 49.41-10.08 49.36-10.06L49.36-10.06 43.7-7.42Q42.82-6.79 42.51-6.35 42.21-5.91 42.21-4.74ZM68.99-0.93L68.99-0.93Q70.14-0.78 70.14-0.34L70.14-0.34Q70.14-0.05 69.89 0L69.89 0 59 0Q58.76-0.05 58.76-0.34L58.76-0.34Q58.76-0.78 59.91-0.93L59.91-0.93Q62.54-1.32 62.54-3.71L62.54-3.71 62.54-34.16Q62.54-35.18 61.42-35.57L61.42-35.57Q60.93-35.74 60.37-35.85 59.81-35.96 59.48-36.06 59.15-36.16 59.06-36.24 58.98-36.33 58.98-36.61 58.98-36.89 59.35-37.08L59.35-37.08 65.57-40.01Q65.86-40.16 65.94-40.16L65.94-40.16Q66.35-40.16 66.35-39.58L66.35-39.58 66.35-3.71Q66.35-1.32 68.99-0.93ZM90.79-12.87L76.63-12.87Q76.21-12.87 76.21-11.08L76.21-11.08Q76.21-7.3 78.46-4.74 80.71-2.17 84.04-2.17 87.37-2.17 90.45-5.05L90.45-5.05Q90.5-5.1 90.57-5.1L90.57-5.1 90.69-5.1Q90.84-5.1 90.97-4.87 91.11-4.64 91.23-4.57L91.23-4.57Q88.4-1.12 84.56 0.2L84.56 0.2Q83.24 0.66 81.58 0.66 79.92 0.66 78.22-0.26 76.51-1.17 75.29-2.66L75.29-2.66Q72.7-5.76 72.7-10.39 72.7-15.01 75.52-18.82 78.34-22.63 83.27-22.63L83.27-22.63Q86.81-22.63 89.06-19.47 91.3-16.31 91.3-13.92L91.3-13.92Q91.3-12.87 90.79-12.87L90.79-12.87ZM76.9-15.5L76.9-15.21Q76.9-14.75 77.34-14.75L77.34-14.75 86.54-14.75Q87.18-14.75 87.18-15.5L87.18-15.5Q87.18-17.26 85.6-19.1 84.03-20.95 82.15-20.95L82.15-20.95Q80.31-20.95 78.81-19.29 77.31-17.63 76.9-15.5L76.9-15.5ZM113.32-7.69L113.32-7.69 113.27-12.84Q113.27-15.99 112.73-17.26 112.2-18.53 111.37-19.18 110.54-19.82 109.13-19.82 107.73-19.82 103.19-17.63L103.19-17.63Q102.58-17.26 102.55-16.94L102.55-16.94 102.55-3.81Q102.55-1.34 105.19-0.98L105.19-0.98Q106.34-0.81 106.34-0.43 106.34-0.05 106.09 0L106.09 0 95.2 0Q94.96-0.05 94.96-0.34L94.96-0.34Q94.96-0.81 96.11-0.98L96.11-0.98Q98.74-1.34 98.74-3.81L98.74-3.81 98.74-17.82Q98.74-18.85 97.62-19.24L97.62-19.24Q97.13-19.41 96.57-19.52 96.01-19.63 95.68-19.73 95.35-19.82 95.27-19.91 95.18-20 95.18-20.28 95.18-20.56 95.55-20.75L95.55-20.75 101.77-23.68Q102.07-23.83 102.14-23.83L102.14-23.83Q102.55-23.83 102.55-23.24L102.55-23.24 102.55-19.43Q102.63-19.19 102.75-19.19L102.75-19.19Q102.9-19.19 103.8-19.63L103.8-19.63Q105.9-20.68 108.02-21.66 110.15-22.63 111.54-22.63L111.54-22.63Q117.18-22.63 117.18-12.35L117.18-12.35 116.96-5.22 116.96-3.81Q116.96-1.9 118.86-1.32L118.86-1.32Q119.67-1.05 120.41-0.94 121.16-0.83 121.39-0.73 121.62-0.63 121.62-0.34 121.62-0.05 121.38 0L121.38 0 109.61 0Q109.37-0.05 109.37-0.34L109.37-0.34Q109.37-0.81 110.51-0.98L110.51-0.98Q113.12-1.34 113.12-4L113.12-4Q113.32-5.22 113.32-7.69ZM134.7 0L123.82 0Q123.57-0.05 123.57-0.34L123.57-0.34Q123.57-0.78 124.72-0.93L124.72-0.93Q127.36-1.32 127.36-3.71L127.36-3.71 127.36-16.63Q127.36-17.65 126.23-18.04L126.23-18.04Q125.74-18.21 125.18-18.32 124.62-18.43 124.29-18.53 123.96-18.63 123.88-18.71 123.79-18.8 123.79-19.08 123.79-19.36 124.16-19.56L124.16-19.56 130.38-22.49Q130.68-22.63 130.75-22.63L130.75-22.63Q131.16-22.63 131.16-22.05L131.16-22.05 131.16-3.71Q131.16-1.32 133.8-0.93L133.8-0.93Q134.95-0.78 134.95-0.42 134.95-0.05 134.7 0L134.7 0ZM128.91-29.49Q127.89-29.49 127.12-30.13 126.35-30.76 126.35-31.9 126.35-33.03 127.09-33.69 127.82-34.35 128.83-34.35 129.85-34.35 130.54-33.57 131.24-32.79 131.24-31.88 131.24-30.98 130.58-30.24 129.92-29.49 128.91-29.49ZM151.23-0.39L151.23-0.39Q151.23 0 150.79 0L150.79 0 137.39 0Q137.14-0.05 137.14-0.34L137.14-0.34Q137.14-0.78 138.29-0.93L138.29-0.93Q140.93-1.32 140.93-3.71L140.93-3.71 140.93-18.51Q140.93-18.77 140.63-18.77L140.63-18.77 137.97-18.77Q137.68-18.77 137.41-18.96 137.14-19.14 137.14-19.45 137.14-19.75 137.44-19.92L137.44-19.92Q137.85-20.17 139.39-20.58 140.93-21 140.93-21.95L140.93-21.95 140.93-22.75Q140.93-31.54 144.74-36.28L144.74-36.28Q146.86-38.94 151.21-40.38L151.21-40.38Q152.52-40.82 153.82-40.82 155.11-40.82 156.85-40.15 158.58-39.48 158.58-38.53L158.58-38.53Q158.58-38.33 158.52-38.18 158.46-38.04 158.38-37.82L158.38-37.82 157.38-35.67Q157.19-35.28 156.92-35.28L156.92-35.28Q156.85-35.28 155.87-36.05 154.89-36.82 153.81-37.46 152.72-38.11 151.25-38.11L151.25-38.11Q148.4-38.11 146.93-36.65 145.47-35.18 145.1-33.34 144.74-31.49 144.74-29.27L144.74-29.27 144.74-22.17Q144.74-21.97 144.98-21.97L144.98-21.97 149.74-21.97Q150.42-21.97 150.63-21.84 150.84-21.7 151.03-20.96 151.23-20.21 151.23-19.59 151.23-18.97 151.11-18.87 150.99-18.77 150.6-18.77L150.6-18.77 145.05-18.77Q144.74-18.77 144.74-18.53L144.74-18.53 144.74-4.2Q144.74-0.71 150.79-0.71L150.79-0.71Q151.23-0.66 151.23-0.39ZM167.68-21.97L176.94-21.97Q177.2-21.9 177.2-21.63 177.2-21.36 177.16-21.28 177.11-21.19 176.92-21.13 176.74-21.07 176.41-21.02 176.08-20.97 175.37-20.84 174.67-20.7 174.1-19.85 173.54-18.99 172.91-17.48L172.91-17.48 161.43 10.96 159.85 14.33Q159.24 15.63 157.28 15.63L157.28 15.63Q156.43 15.63 155.92 15.06 155.4 14.5 155.4 13.73 155.4 12.96 155.78 12.61 156.16 12.26 156.67 12.04 157.18 11.82 157.73 11.63 158.28 11.45 158.97 10.8 159.65 10.16 159.77 9.84L159.77 9.84Q163.87 0.66 163.87 0.24 163.87-0.17 163.39-0.78L163.39-0.78 155.33-17.6Q154.43-20.07 152.23-20.78L152.23-20.78Q152.06-20.83 151.81-20.85L151.81-20.85Q150.79-20.95 150.79-21.46 150.79-21.97 151.37-21.97L151.37-21.97 162.24-21.97Q162.43-21.97 162.43-21.59 162.43-21.22 162.09-21.08 161.75-20.95 160.58-20.95L160.58-20.95Q158.7-20.95 158.7-19.48L158.7-19.48 158.92-18.9 165.24-5.35Q165.73-4.1 166.22-5.42L166.22-5.42Q166.27-5.54 166.83-7.01L166.83-7.01Q170.15-15.43 170.55-16.75 170.95-18.07 170.95-18.73 170.95-19.38 170.26-20.12 169.56-20.85 168.35-20.85 167.15-20.85 167.15-21.56L167.15-21.56Q167.15-21.97 167.68-21.97L167.68-21.97Z" opacity="1" transform="matrix(1,0,0,1,0,0)" fill="#000000" class="wordmark-text-0" data-fill-palette-color="primary" id="text-0"></path></svg></g></svg></g></svg></g></svg></g></svg></g></svg></g></svg></g><g><path d="M245.816 0c68.262 0 123.6 55.338 123.6 123.6 0 68.262-55.338 123.6-123.6 123.6-51.03 0-94.837-30.925-113.703-75.057h3.863c18.644 42.124 60.81 71.515 109.84 71.515 66.306 0 120.058-53.752 120.058-120.058 0-66.306-53.752-120.058-120.058-120.058-49.03 0-91.196 29.391-109.84 71.515l-3.863 0c18.865-44.132 62.673-75.057 113.703-75.057z" fill="#000000" stroke="transparent" data-fill-palette-color="tertiary"></path></g></svg></g><defs></defs></svg><rect width="395.52" height="247.2" fill="none" stroke="none" visibility="hidden"></rect></g></svg></g></svg>