<svg id="visual" viewBox="0 0 900 600" width="900" height="600" xmlns="http://www.w3.org/2000/svg" xmlns:xlink="http://www.w3.org/1999/xlink" version="1.1"><rect x="0" y="0" width="900" height="600" fill="#E0F4FF"></rect><path d="M0 516L21.5 516.2C43 516.3 86 516.7 128.8 493.5C171.7 470.3 214.3 423.7 257.2 410.7C300 397.7 343 418.3 385.8 436.3C428.7 454.3 471.3 469.7 514.2 470C557 470.3 600 455.7 642.8 454.3C685.7 453 728.3 465 771.2 472.5C814 480 857 483 878.5 484.5L900 486L900 601L878.5 601C857 601 814 601 771.2 601C728.3 601 685.7 601 642.8 601C600 601 557 601 514.2 601C471.3 601 428.7 601 385.8 601C343 601 300 601 257.2 601C214.3 601 171.7 601 128.8 601C86 601 43 601 21.5 601L0 601Z" fill="#A2C579" stroke-linecap="round" stroke-linejoin="miter"></path></svg>